# xmcd CD database file
#
# Track frame offsets:
#	150
#	18874
#	36856
#	55472
#
# Disc length: 973 seconds
#
# Revision: 0
# Processed by: cddbd v1.5.1PL2 Copyright (c) Steve Scherf et al.
# Submitted via: CDex 1.51
#
DISCID=2b03cb04
DTITLE=男玖 - 2005年度ひいらぎ祭テーマソング
DYEAR=2005
DGENRE=JPop
TTITLE0=風
TTITLE1=光の彼方
TTITLE2=風　-instrumental-
TTITLE3=光の彼方　-instrumental-
EXTD=YEAR: 2005
EXTT0=
EXTT1=
EXTT2=
EXTT3=
PLAYORDER=
